<!--?xml version="1.0" standalone="no"?-->
              <svg id="sw-js-blob-svg" viewBox="0 0 100 100" xmlns="http://www.w3.org/2000/svg" version="1.1">
                    <defs> 
                        <linearGradient id="sw-gradient" x1="0" x2="1" y1="1" y2="0">
                            <stop id="stop1" stop-color="rgba(251.775, 139.074, 43.431, 0.8)" offset="0%"></stop>
                            <stop id="stop2" stop-color="rgba(188.025, 64.285, 87.552, 1)" offset="100%"></stop>
                        </linearGradient>
                    </defs>
                <path fill="url(#sw-gradient)" d="M21.9,-34.2C27.8,-30.2,31.6,-23.2,35.6,-15.8C39.7,-8.5,44,-0.8,43,6.2C42,13.1,35.7,19.3,29.7,25.2C23.7,31,18,36.5,11.4,38.2C4.7,39.9,-2.9,37.9,-10.3,35.5C-17.7,33.2,-24.9,30.5,-31.1,25.6C-37.3,20.8,-42.7,13.9,-44.2,6.1C-45.7,-1.7,-43.5,-10.3,-39.8,-18C-36,-25.8,-30.8,-32.7,-23.9,-36.3C-17,-39.8,-8.5,-40,-0.3,-39.6C8,-39.2,16,-38.2,21.9,-34.2Z" width="100%" height="100%" transform="translate(50 50)" style="transition: all 0.3s ease 0s;" stroke-width="0" stroke="url(#sw-gradient)"></path>
              </svg>